<svg width="816" height="891" viewBox="0 0 816 891" fill="none" xmlns="http://www.w3.org/2000/svg">
<path d="M561.807 1.21409C604.603 -1.94571 656.338 13.4886 693.591 34.0969C695.289 35.0409 696.975 36.0056 698.649 36.9909C700.324 37.9762 701.986 38.9819 703.635 40.0079C705.284 41.0339 706.921 42.0802 708.545 43.1469C710.169 44.2129 711.779 45.2989 713.376 46.4049C714.973 47.5109 716.557 48.6362 718.126 49.7809C719.695 50.9262 721.251 52.0902 722.792 53.2729C724.333 54.4562 725.859 55.6582 727.37 56.8789C728.881 58.0989 730.377 59.3376 731.858 60.5949C733.339 61.8522 734.805 63.1276 736.254 64.4209C737.704 65.7142 739.138 67.0252 740.555 68.3539C741.972 69.6819 743.373 71.0276 744.757 72.3909C746.142 73.7536 747.509 75.1332 748.859 76.5299C750.21 77.9266 751.543 79.3396 752.859 80.7689C754.174 82.1976 755.472 83.6426 756.752 85.1039C758.033 86.5652 759.295 88.0419 760.539 89.5339C761.783 91.0259 763.008 92.5332 764.215 94.0559C765.422 95.5779 766.61 97.1146 767.779 98.6659C768.948 100.217 770.098 101.783 771.229 103.363C772.36 104.942 773.471 106.536 774.562 108.143C775.653 109.75 776.725 111.37 777.777 113.003C778.829 114.636 779.861 116.282 780.872 117.941C781.883 119.6 782.874 121.271 783.844 122.954C784.814 124.637 785.763 126.331 786.692 128.038C787.621 129.744 788.528 131.461 789.415 133.19C790.301 134.919 791.166 136.658 792.01 138.408C792.854 140.158 793.676 141.918 794.476 143.688C795.277 145.458 796.055 147.238 796.812 149.027C797.569 150.816 798.303 152.614 799.016 154.421C799.729 156.228 800.419 158.044 801.087 159.868C801.755 161.693 802.4 163.525 803.023 165.365C803.646 167.205 804.247 169.052 804.824 170.907C805.401 172.762 805.956 174.623 806.488 176.492C807.762 181.049 808.905 185.638 809.917 190.26C810.929 194.882 811.808 199.529 812.554 204.201C813.3 208.873 813.912 213.563 814.391 218.27C814.87 222.977 815.213 227.694 815.422 232.421C816.269 249.624 815.376 266.779 814.138 283.938C813.523 292.045 812.78 300.14 811.909 308.223C811.038 316.306 810.038 324.374 808.911 332.425C807.783 340.476 806.528 348.508 805.146 356.52C803.764 364.531 802.255 372.519 800.62 380.483C798.985 388.447 797.223 396.383 795.336 404.291C793.449 412.199 791.437 420.075 789.3 427.919C787.163 435.763 784.902 443.571 782.517 451.344C780.132 459.117 777.625 466.849 774.995 474.542C770.217 488.216 764.429 502.017 758.25 515.106C752.162 528.004 745.54 540.598 740.197 553.839C729.051 581.466 721.253 612.358 712.185 640.93L669.823 775.052C663.361 794.95 656.568 822.014 646.561 839.842C633.767 862.634 610.904 879.828 585.8 886.671C585.025 886.88 584.247 887.079 583.467 887.269C582.687 887.458 581.905 887.638 581.121 887.809C580.336 887.98 579.55 888.14 578.762 888.291C577.973 888.442 577.183 888.584 576.392 888.715C575.6 888.846 574.807 888.968 574.012 889.081C573.217 889.193 572.42 889.295 571.623 889.387C570.826 889.48 570.027 889.562 569.228 889.635C568.429 889.708 567.629 889.771 566.828 889.824C566.027 889.877 565.225 889.92 564.423 889.953C563.621 889.986 562.819 890.01 562.017 890.024C561.214 890.037 560.412 890.041 559.609 890.035C558.806 890.028 558.004 890.012 557.201 889.986C556.399 889.96 555.597 889.924 554.796 889.879C553.995 889.833 553.194 889.777 552.394 889.712C551.594 889.647 550.795 889.571 549.996 889.486C549.198 889.401 548.401 889.306 547.606 889.201C546.81 889.096 546.015 888.982 545.222 888.857C544.429 888.733 543.638 888.599 542.848 888.455C542.059 888.311 541.271 888.157 540.485 887.994C539.699 887.831 538.915 887.658 538.134 887.476C537.352 887.293 536.573 887.101 535.796 886.899C535.019 886.697 534.244 886.486 533.473 886.265C532.701 886.044 531.932 885.814 531.166 885.574C530.4 885.334 529.637 885.085 528.877 884.827C528.117 884.568 527.36 884.3 526.607 884.023C525.854 883.746 525.104 883.459 524.358 883.164C523.612 882.868 522.87 882.563 522.131 882.249C521.392 881.935 520.657 881.612 519.926 881.28C519.195 880.948 518.469 880.607 517.747 880.257C517.024 879.907 516.306 879.548 515.593 879.18C514.88 878.813 514.171 878.436 513.466 878.051C512.762 877.666 512.063 877.273 511.368 876.87C510.403 876.307 509.449 875.728 508.504 875.133C507.559 874.538 506.624 873.927 505.7 873.3C504.775 872.673 503.862 872.031 502.96 871.373C502.057 870.716 501.166 870.043 500.286 869.355C499.406 868.668 498.538 867.965 497.682 867.248C496.826 866.531 495.982 865.799 495.151 865.054C494.32 864.309 493.501 863.549 492.695 862.776C491.89 862.003 491.097 861.216 490.318 860.416C489.539 859.616 488.773 858.803 488.022 857.977C487.27 857.151 486.532 856.312 485.809 855.461C485.086 854.61 484.377 853.748 483.683 852.873C482.989 851.998 482.31 851.112 481.645 850.214C480.981 849.316 480.332 848.407 479.699 847.488C479.066 846.568 478.448 845.638 477.846 844.698C477.244 843.757 476.658 842.807 476.088 841.846C475.518 840.886 474.964 839.916 474.427 838.937C467.719 826.829 464.265 813.326 460.151 800.2C454.573 782.554 449.122 764.869 443.799 747.145C433.015 712.305 420.84 677.731 411.482 642.478C408.783 642.349 406.07 642.467 403.369 642.522C399.367 658.316 394.408 673.849 389.681 689.437C384.393 707.518 378.938 725.548 373.317 743.529C367.546 762.073 362.614 780.944 356.408 799.342C350.259 819.874 344.706 839.308 330.241 855.87C329.709 856.486 329.169 857.096 328.622 857.699C328.074 858.302 327.519 858.897 326.957 859.486C326.395 860.075 325.826 860.657 325.249 861.232C324.672 861.807 324.089 862.374 323.498 862.935C322.907 863.495 322.309 864.048 321.705 864.594C321.1 865.139 320.489 865.677 319.871 866.208C319.253 866.738 318.629 867.26 317.998 867.775C317.367 868.29 316.729 868.797 316.086 869.296C315.443 869.795 314.793 870.285 314.137 870.768C313.482 871.251 312.82 871.726 312.153 872.192C311.485 872.659 310.812 873.117 310.133 873.566C309.454 874.016 308.77 874.457 308.08 874.89C307.39 875.322 306.695 875.746 305.995 876.161C305.294 876.576 304.589 876.983 303.879 877.381C303.168 877.779 302.453 878.168 301.733 878.548C301.012 878.928 300.287 879.299 299.558 879.661C298.829 880.023 298.095 880.376 297.357 880.72C296.619 881.063 295.877 881.398 295.13 881.723C294.383 882.048 293.633 882.364 292.879 882.671C292.124 882.978 291.366 883.275 290.605 883.563C289.843 883.851 289.078 884.129 288.309 884.398C287.54 884.667 286.769 884.926 285.994 885.176C285.219 885.425 284.441 885.665 283.66 885.895C282.879 886.126 282.095 886.346 281.308 886.557C280.522 886.768 279.733 886.969 278.941 887.16C278.15 887.351 277.356 887.533 276.56 887.704C275.764 887.875 274.966 888.037 274.166 888.188C273.366 888.34 272.564 888.482 271.761 888.613C270.957 888.745 270.152 888.867 269.346 888.978C268.539 889.09 267.731 889.192 266.922 889.283C266.113 889.375 265.303 889.457 264.492 889.528C263.681 889.599 262.869 889.661 262.056 889.712C261.253 889.765 260.449 889.809 259.645 889.842C258.841 889.875 258.036 889.898 257.231 889.911C256.426 889.924 255.622 889.928 254.817 889.921C254.012 889.914 253.207 889.898 252.403 889.872C251.598 889.845 250.794 889.809 249.991 889.762C249.187 889.716 248.384 889.66 247.582 889.593C246.78 889.527 245.979 889.451 245.178 889.365C244.378 889.278 243.579 889.182 242.781 889.076C241.983 888.971 241.187 888.855 240.392 888.729C239.597 888.604 238.803 888.468 238.011 888.323C237.22 888.178 236.43 888.022 235.642 887.857C234.854 887.692 234.068 887.518 233.285 887.334C232.502 887.149 231.721 886.955 230.942 886.752C230.163 886.548 229.386 886.335 228.613 886.112C227.84 885.889 227.069 885.657 226.302 885.415C225.534 885.173 224.769 884.922 224.008 884.661C223.247 884.4 222.488 884.129 221.733 883.85C220.978 883.57 220.227 883.281 219.48 882.983C218.732 882.685 217.988 882.378 217.248 882.061C216.508 881.744 215.772 881.418 215.04 881.083C214.309 880.748 213.581 880.405 212.857 880.052C212.134 879.699 211.415 879.337 210.7 878.966C209.986 878.595 209.276 878.216 208.571 877.828C207.866 877.44 207.166 877.043 206.471 876.637C205.776 876.232 205.085 875.818 204.4 875.395C203.715 874.972 203.036 874.541 202.361 874.101C201.687 873.662 201.018 873.214 200.355 872.758C199.692 872.302 199.034 871.838 198.382 871.365C197.731 870.893 197.085 870.413 196.445 869.924C195.805 869.436 195.171 868.94 194.544 868.436C193.916 867.932 193.295 867.42 192.68 866.901C192.065 866.382 191.457 865.855 190.855 865.32C179.37 855.169 169.893 842.817 163.864 828.651C159.672 818.802 156.607 808.411 153.447 798.194L140.857 757.301L110.494 659.427C102.999 635.089 95.715 610.621 87.589 586.485C79.612 562.791 67.925 540.925 58.019 518.046C51.159 502.452 44.9287 486.61 39.328 470.521C33.7273 454.432 28.774 438.146 24.468 421.663C21.372 410.014 18.564 398.297 16.044 386.51C13.5246 374.723 11.296 362.882 9.35798 350.986C7.41998 339.089 5.77532 327.153 4.42398 315.176C3.07265 303.199 2.01631 291.196 1.25498 279.167C-3.38902 205.639 10.625 140.553 60.458 84.0999C77.24 65.0889 98.197 48.4559 120.247 35.9619C170.243 7.63309 244.95 -9.83271 300.359 10.7915C309.99 14.3761 319.837 19.3624 328.168 25.3956C333.646 29.3622 338.749 33.8246 344.265 37.7459C345.471 38.6206 346.695 39.4702 347.936 40.2949C349.177 41.1189 350.435 41.9172 351.709 42.6899C352.983 43.4626 354.273 44.2086 355.578 44.9279C356.883 45.6472 358.202 46.3392 359.535 47.0039C360.868 47.6692 362.215 48.3069 363.574 48.9169C364.934 49.5262 366.306 50.1076 367.689 50.6609C369.072 51.2136 370.467 51.7379 371.872 52.2339C373.277 52.7299 374.692 53.1966 376.116 53.6339C377.541 54.0712 378.973 54.4792 380.414 54.8579C381.855 55.2359 383.304 55.5846 384.759 55.9039C386.214 56.2226 387.676 56.5112 389.143 56.7699C390.611 57.0286 392.083 57.2569 393.56 57.4549C395.037 57.6529 396.517 57.8202 398 57.9569C399.484 58.0942 400.97 58.2009 402.458 58.2769C403.946 58.3529 405.435 58.3979 406.925 58.4119C408.415 58.4266 409.905 58.4106 411.394 58.3639C432.468 57.7029 454.175 50.5479 471.281 38.1289C478.719 32.7291 485.677 26.3436 493.559 21.6041C514.793 8.83449 537.196 2.73079 561.807 1.21409Z" fill="#A5DDE9"/>
<path d="M242.461 47.2181C295.667 45.3521 299.531 70.2941 340.587 89.7651C342.074 90.4571 343.572 91.1261 345.08 91.7721C346.587 92.4181 348.105 93.0408 349.632 93.6401C351.159 94.2388 352.695 94.8138 354.24 95.3651C355.785 95.9164 357.339 96.4441 358.9 96.9481C360.461 97.4514 362.03 97.9304 363.606 98.3851C365.182 98.8398 366.765 99.2701 368.354 99.6761C369.944 100.082 371.539 100.463 373.14 100.819C374.741 101.176 376.348 101.507 377.96 101.814C379.571 102.121 381.187 102.402 382.807 102.659C384.427 102.916 386.051 103.147 387.679 103.354C389.306 103.561 390.936 103.742 392.569 103.898C394.202 104.054 395.837 104.185 397.474 104.29C399.111 104.395 400.75 104.476 402.389 104.531C404.028 104.586 405.668 104.615 407.309 104.619C408.95 104.623 410.59 104.601 412.229 104.554C413.869 104.507 415.508 104.435 417.145 104.338C418.783 104.241 420.419 104.118 422.052 103.97C423.686 103.822 425.317 103.649 426.945 103.45C428.574 103.251 430.199 103.027 431.82 102.778C433.441 102.529 435.059 102.256 436.672 101.957C438.285 101.658 439.893 101.334 441.496 100.985C443.099 100.636 444.696 100.263 446.287 99.8651C447.878 99.4671 449.463 99.0444 451.042 98.5971C452.62 98.1504 454.191 97.6791 455.755 97.1831C457.318 96.6871 458.874 96.1671 460.422 95.6231C461.969 95.0791 463.508 94.5114 465.038 93.9201C466.568 93.3288 468.089 92.7138 469.6 92.0751C471.111 91.4364 472.612 90.7744 474.103 90.0891C475.593 89.4044 477.072 88.6968 478.541 87.9661C480.01 87.2348 481.467 86.4811 482.912 85.7051C484.357 84.9298 485.79 84.1318 487.211 83.3111C488.632 82.4911 490.039 81.6491 491.434 80.7851C505.987 71.6951 517.998 58.7331 534.396 52.9361C541.093 50.5691 547.973 48.6601 555.031 47.7571C589.47 43.3461 631.028 54.6621 661.924 69.5731C707.151 91.3991 743.265 132.946 759.586 180.284C760.729 183.599 761.773 186.944 762.719 190.32C763.666 193.696 764.512 197.097 765.259 200.522C766.006 203.948 766.651 207.393 767.196 210.856C767.741 214.319 768.184 217.796 768.525 221.285C775.286 287.632 756.702 391.151 734.003 454.937C728.899 469.28 722.811 483.823 716.162 497.52C710.985 508.187 705.059 518.576 700.469 529.512C696.903 538.009 694.255 546.939 691.34 555.676L675.167 605.561L633.58 738.19C628.838 753.283 623.988 768.341 619.03 783.364C615.609 793.893 612.654 805.013 607.753 814.944C601.094 828.438 589.168 837.103 575.117 841.795C562.79 845.911 547.19 843.706 535.745 837.914C526.652 833.312 518.885 825.581 513.676 816.864C507.084 805.832 504.069 791.617 500.24 779.337L484.539 729.4L455.751 636.715C454.276 631.991 452.729 627.266 451.488 622.474C450.019 616.795 449.087 610.861 446.771 605.446C446.269 604.283 445.706 603.15 445.083 602.047C444.46 600.944 443.78 599.877 443.043 598.846C442.306 597.815 441.517 596.827 440.675 595.881C439.832 594.934 438.942 594.035 438.004 593.184C429.295 585.218 416.492 580.975 404.748 581.644C391.603 582.392 378.276 589.468 370.777 600.383C364.453 609.587 363.329 622.551 359.996 633.116C346.236 676.744 334.08 720.899 320.318 764.529C315.802 778.844 312.307 794.077 306.664 807.956C304.165 814.104 301.014 819.771 296.572 824.722C286.545 835.899 273.184 842.536 258.128 843.299C243.995 844.015 229.504 839.244 218.982 829.72C218.201 829.012 217.439 828.284 216.697 827.535C215.954 826.786 215.233 826.018 214.533 825.23C213.832 824.442 213.153 823.636 212.496 822.812C211.839 821.987 211.204 821.146 210.592 820.287C209.981 819.428 209.393 818.554 208.828 817.664C208.263 816.773 207.723 815.868 207.207 814.949C206.692 814.029 206.201 813.096 205.736 812.151C205.271 811.205 204.831 810.247 204.417 809.277C201.251 801.955 199.376 793.86 197.007 786.231C192.054 770.392 187.197 754.524 182.438 738.627L147.334 624.235C140.65 602.807 134.354 581.256 126.752 560.13C120.135 541.743 110.602 524.28 102.441 506.531C96.451 493.656 90.9694 480.567 85.996 467.266C81.022 453.965 76.5717 440.49 72.645 426.843C69.0624 414.372 65.8263 401.811 62.937 389.161C60.0483 376.511 57.5107 363.791 55.324 351C53.1374 338.21 51.305 325.369 49.827 312.478C48.3497 299.587 47.229 286.664 46.465 273.711C43.45 213.119 54.29 159.212 96.119 113.123C133.033 72.4501 188.129 49.8201 242.461 47.2181Z" fill="#0033D0"/>
<path d="M238.255 80.6979C248.844 79.1029 263.412 79.5299 272.535 85.4489C272.265 92.9979 271.338 102.448 266.458 108.558C260.349 116.205 250.381 116.465 241.486 117.621C235.137 118.339 228.725 120.505 222.588 122.227C221.123 107.692 218.801 98.0819 211.116 85.4519C220.039 83.1626 229.085 81.5779 238.255 80.6979Z" fill="#4CE3FF"/>
<path d="M679.102 128.672C683.272 128.857 686.855 129.707 690.369 132.039C694.564 134.822 698.014 139.212 701.242 143.035C716.746 161.401 728.475 184.049 732.813 207.843C733.926 213.947 733.179 219.756 729.467 224.888C726.075 229.578 721.467 231.65 715.921 232.553C711.157 232.601 706.742 231.782 702.802 228.919C693.64 222.261 692.906 207.707 689.077 197.738C686.339 190.611 682.789 184.242 678.325 178.045C672.399 169.819 661.546 161.838 660.034 151.397C659.25 145.984 660.853 140.886 664.134 136.574C668.057 131.419 672.863 129.422 679.102 128.672Z" fill="#4CE3FF"/>
<path d="M183.502 624.515C196.244 623.861 208.994 623.509 221.752 623.458C218.229 629.364 214.497 635.224 209.714 640.208C217.073 661.492 223.154 683.234 230.062 704.673C232.879 713.417 235.517 722.474 239.029 730.96C244.227 724.123 249.049 717.016 254.107 710.077C258.813 724.849 262.351 740.094 266.503 755.044C269.228 764.852 274.356 779.292 275.4 788.969C275.781 792.504 275.285 795.578 273.755 798.798C271.414 803.724 267.08 807.375 261.93 809.095C261.583 809.214 261.233 809.323 260.88 809.424C260.527 809.525 260.172 809.617 259.815 809.7C259.457 809.783 259.098 809.856 258.737 809.921C258.376 809.986 258.013 810.041 257.649 810.088C257.285 810.134 256.92 810.171 256.554 810.198C256.188 810.226 255.822 810.245 255.455 810.254C255.088 810.263 254.721 810.262 254.354 810.253C253.987 810.244 253.621 810.225 253.255 810.197C252.89 810.168 252.525 810.131 252.161 810.084C251.797 810.038 251.434 809.982 251.073 809.917C250.712 809.852 250.352 809.778 249.995 809.695C249.638 809.612 249.283 809.519 248.93 809.418C248.577 809.317 248.228 809.206 247.881 809.087C247.534 808.968 247.19 808.841 246.849 808.704C246.508 808.567 246.171 808.422 245.838 808.269C245.505 808.115 245.176 807.953 244.851 807.783C240.503 805.457 237.578 801.85 235.593 797.398C233.198 792.026 231.914 786.016 230.326 780.352C228.034 772.097 225.632 763.875 223.12 755.684L198.91 675.628C193.838 658.569 189.039 641.432 183.502 624.515Z" fill="#00FFD0"/>
<path d="M175.932 98.5469C180.344 98.2659 184.514 98.5189 188.47 100.692C188.948 100.958 189.412 101.247 189.861 101.559C190.31 101.872 190.742 102.206 191.157 102.561C191.572 102.917 191.969 103.293 192.347 103.688C192.725 104.083 193.082 104.497 193.418 104.929C193.754 105.36 194.068 105.807 194.359 106.27C194.65 106.733 194.918 107.21 195.161 107.699C195.404 108.189 195.622 108.69 195.815 109.202C196.008 109.713 196.175 110.233 196.316 110.762C198.402 118.309 195.38 127.783 189.54 132.992C185.279 136.791 179.645 139.166 174.691 141.936C170.404 144.333 166.278 147.142 162.373 150.118C153.089 157.195 145.374 166.032 138.923 175.727C127.445 192.977 120.839 214.6 119.481 235.208C119.066 241.506 119.13 247.635 119.527 253.924C119.797 258.22 120.615 263.062 120.142 267.318C119.832 270.117 118.593 273.106 117.145 275.498C113.944 280.785 109.082 283.309 103.248 284.64C98.973 284.871 95.032 284.395 91.192 282.352C86.532 279.872 83.3 275.648 81.774 270.631C79.994 264.781 80.224 257.882 80.086 251.802C79.439 223.276 84.044 194.838 97.516 169.368C110.987 143.901 129.969 123.591 154.698 108.807C161.486 104.749 168.336 100.883 175.932 98.5469Z" fill="#4CE3FF"/>
<path d="M165.31 473.14C163.113 465.652 162.73 458.074 166.545 450.984C169.648 445.218 174.771 441.054 181.091 439.309C185.807 438.008 191.207 438.035 195.773 439.903C204.839 443.613 213.822 451.024 221.927 456.576C236.929 467.055 252.028 477.391 267.225 487.584C273.846 491.991 280.343 496.674 287.224 500.665C300.409 510.125 314.453 518.2 328.027 527.062C320.174 541.176 312.131 555.181 303.898 569.078C288.475 594.263 275.88 621.235 260.126 646.203L260.238 646.694C262.282 655.397 272.656 683.716 272.383 689.937C270.805 690.891 268.788 691.238 267.404 692.42C264.296 695.077 256.299 706.305 254.107 710.077C249.049 717.016 244.227 724.123 239.029 730.96C235.517 722.474 232.879 713.417 230.062 704.673C223.154 683.234 217.073 661.492 209.714 640.208C214.497 635.224 218.229 629.364 221.752 623.458C237.228 597.516 250.582 570.167 266.934 544.751L245.921 531.078C219.031 542.227 192.057 553.168 164.998 563.901C159.753 549.55 153.485 535.678 148.649 521.154C167.043 513.685 185.785 507.13 204.184 499.648C192.859 492.048 175.047 481.672 165.31 473.14Z" fill="#4CE3FF"/>
<path d="M621.644 89.1411C636.791 94.3811 650.417 100.996 664.181 109.195C652.479 121.64 639.049 132.541 626.51 144.146C611.318 158.208 596.677 173.126 580.558 186.141C597.688 191.548 615.569 195.73 632.986 200.264C641.139 202.387 651.191 203.889 658.687 207.722C662.739 209.794 666.032 213.572 668.095 217.578C670.822 222.874 671.338 228.586 669.415 234.234C667.375 240.228 663.071 245.491 657.253 248.129C653.442 249.858 649.976 250.067 645.869 249.592C632.715 248.07 619.131 243.122 606.289 239.718L542.966 223.511C529.959 235.578 516.79 247.467 503.461 259.178C496.625 265.245 490.074 271.842 482.782 277.343C496.719 281.428 510.714 285.301 524.768 288.963C533.673 291.319 544.381 292.974 552.542 297.34C556.296 299.349 559.258 302.163 561.267 305.943C563.882 310.863 564.467 317.946 562.675 323.274C560.77 328.939 556.44 333.477 551.13 336.116C547.448 337.946 543.637 338.783 539.538 338.43C530.051 337.615 520.038 333.609 510.825 331.019C489.051 324.695 467.24 318.5 445.392 312.435C435.667 321.312 425.862 330.1 415.979 338.8C426.392 356.537 436.087 374.661 446.111 392.616C453.569 405.975 461.681 419.261 468.387 433.005C451.886 432.715 435.454 433.21 418.961 433.535C413.512 421.878 407.112 410.54 400.85 399.304C387.709 375.726 373.783 352.617 360.567 329.076C376.262 316.264 390.961 301.983 405.864 288.252L463.672 235.303C516.69 186.972 569.347 138.252 621.644 89.1411Z" fill="#A5DDE9"/>
<path d="M345.732 127.152C349.762 128.782 353.964 130.06 358.167 131.156C403.559 142.987 457.636 138.399 498.757 115.064C504.971 111.537 511.524 107.883 517.268 103.629C524.445 98.314 531.116 92.133 538.876 87.664C562.61 73.997 596.798 82.367 621.644 89.141C569.347 138.252 516.69 186.972 463.672 235.303L405.864 288.252C390.961 301.983 376.262 316.264 360.567 329.076C373.783 352.617 387.709 375.726 400.85 399.304C407.112 410.54 413.512 421.878 418.961 433.535C435.454 433.21 451.886 432.715 468.387 433.005C470.306 436.084 471.907 439.181 473.425 442.476L504.792 442.495C519.279 463.263 536.114 482.455 550.247 503.433C560.552 503.182 570.859 503.072 581.168 503.103C604.946 503.016 620.189 501.349 637.473 483.236C651.249 468.798 661.346 443.701 665.825 424.261C682.84 413.415 699.636 402.044 716.92 391.645C710.831 418.013 702.808 445.121 691.836 469.864C684.643 486.087 675.702 501.552 669.329 518.132C661.752 537.847 655.537 558.182 649.27 578.341L629.918 639.907L595.255 749.355L585.693 779.501C583.686 785.9 582.018 792.747 579.115 798.807C577.217 802.769 574.312 806.175 570.555 808.483C566.348 811.067 561.528 811.876 556.733 810.639C551.725 809.347 547.041 806.453 544.547 801.8C543.699 800.218 543.072 798.375 543.13 796.564C543.255 792.632 544.975 787.815 545.945 783.955C548.063 775.706 550.113 767.441 552.094 759.159C555.977 742.197 558.853 724.989 562.293 707.932C532.572 698.746 509.485 684.788 494.398 656.493C478.324 626.349 487.534 595.54 460.235 569.563C452.011 561.737 441.544 555.734 430.72 552.354C430.099 552.154 429.476 551.962 428.851 551.778C428.225 551.594 427.597 551.418 426.968 551.249C426.338 551.08 425.706 550.92 425.072 550.767C424.438 550.614 423.802 550.469 423.165 550.332C422.527 550.195 421.888 550.066 421.247 549.945C420.606 549.824 419.964 549.712 419.321 549.607C418.677 549.502 418.032 549.405 417.386 549.316C416.74 549.227 416.093 549.146 415.445 549.073C414.798 549 414.149 548.936 413.499 548.879C412.85 548.822 412.2 548.774 411.549 548.734C410.898 548.693 410.246 548.661 409.595 548.637C408.943 548.613 408.291 548.597 407.639 548.589C406.987 548.581 406.335 548.581 405.683 548.59C405.031 548.598 404.379 548.614 403.728 548.639C403.076 548.664 402.425 548.697 401.774 548.738C401.123 548.779 400.473 548.828 399.824 548.885C399.174 548.942 398.525 549.007 397.878 549.08C397.23 549.153 396.583 549.235 395.937 549.324C395.291 549.414 394.646 549.512 394.003 549.617C393.359 549.722 392.717 549.836 392.077 549.957C391.436 550.079 390.797 550.209 390.159 550.346C389.522 550.483 388.886 550.629 388.253 550.782C387.619 550.935 386.987 551.097 386.357 551.266C385.728 551.435 385.1 551.611 384.475 551.796C383.85 551.981 383.227 552.173 382.606 552.374C381.985 552.574 381.367 552.782 380.752 552.998C380.137 553.213 379.524 553.437 378.914 553.668C378.304 553.899 377.697 554.137 377.094 554.383C376.49 554.629 375.889 554.883 375.292 555.144C374.694 555.405 374.1 555.673 373.509 555.949C372.918 556.225 372.331 556.508 371.747 556.799C371.163 557.089 370.583 557.387 370.007 557.692C352.467 567.011 339.17 581.867 333.435 601.004C331.63 607.029 330.419 613.404 329.364 619.604C320.326 603.078 311.457 586.341 303.898 569.078C312.131 555.181 320.174 541.176 328.027 527.062C314.453 518.2 300.409 510.125 287.224 500.665C295.438 499.545 311.286 501.044 320.156 501.326L387.161 503.21C375.18 481.38 362.279 460.005 350.053 438.298C351.484 409.664 351.627 380.724 352.127 352.053C338.973 336.225 324.555 320.954 310.562 305.862C310.787 292.045 310.876 278.228 310.828 264.409C318.372 256.845 325.473 248.749 332.719 240.893L374.354 195.537C381.536 187.696 388.418 179.541 396.002 172.084C379.695 156.632 361.749 142.964 345.732 127.152Z" fill="#A5DDE9"/>
</svg>
