<svg width="1024" height="1024" viewBox="0 0 1024 1024" fill="none" xmlns="http://www.w3.org/2000/svg">
<path d="M274.965 113.16C277.111 112.864 279.344 112.797 281.51 112.77C282.209 112.767 282.908 112.782 283.607 112.814C284.306 112.847 285.003 112.896 285.7 112.963C286.396 113.029 287.09 113.113 287.783 113.214C288.475 113.315 289.164 113.433 289.85 113.568C290.537 113.703 291.219 113.856 291.898 114.025C292.577 114.194 293.251 114.379 293.92 114.582C294.589 114.784 295.254 115.003 295.913 115.238C296.572 115.473 297.224 115.725 297.87 115.993C298.516 116.26 299.155 116.544 299.788 116.843C300.42 117.142 301.044 117.457 301.661 117.787C302.278 118.117 302.886 118.462 303.485 118.823C304.084 119.183 304.675 119.558 305.256 119.948C305.837 120.337 306.408 120.741 306.969 121.159C307.53 121.577 308.08 122.008 308.62 122.453C309.159 122.898 309.687 123.357 310.204 123.828C310.721 124.299 311.226 124.783 311.719 125.279C324.764 138.438 323.628 154.061 323.592 171.183L323.505 200.386C333.158 199.966 342.828 200.099 352.488 200.129C352.523 186.157 351.151 154.176 354.355 142.168C354.556 141.405 354.78 140.648 355.029 139.899C355.278 139.15 355.55 138.41 355.846 137.678C356.142 136.947 356.461 136.225 356.803 135.513C357.145 134.802 357.509 134.102 357.895 133.414C358.282 132.725 358.69 132.05 359.119 131.388C359.548 130.726 359.998 130.078 360.469 129.444C360.94 128.811 361.43 128.193 361.94 127.59C362.45 126.987 362.979 126.402 363.526 125.833C364.001 125.344 364.488 124.868 364.987 124.404C365.486 123.939 365.996 123.487 366.517 123.048C367.038 122.608 367.57 122.181 368.112 121.768C368.654 121.355 369.206 120.955 369.767 120.568C370.328 120.182 370.899 119.81 371.479 119.451C372.059 119.093 372.647 118.749 373.244 118.419C373.841 118.09 374.445 117.775 375.057 117.475C375.669 117.176 376.288 116.891 376.914 116.621C377.54 116.352 378.172 116.098 378.811 115.859C379.45 115.62 380.094 115.398 380.743 115.191C381.392 114.984 382.047 114.793 382.706 114.618C383.365 114.443 384.027 114.285 384.694 114.143C385.361 114 386.03 113.874 386.703 113.765C387.376 113.656 388.051 113.563 388.728 113.486C389.405 113.41 390.084 113.35 390.764 113.307C391.445 113.264 392.126 113.238 392.807 113.228C403.642 113.126 414.845 117.602 422.541 125.252C435.362 137.998 434.386 154.812 434.426 171.532L434.466 200.167L589.929 200.031C590.127 189.831 589.95 179.605 589.928 169.403C589.892 152.742 588.979 138.377 601.436 125.537C609.259 117.474 619.831 113.485 630.993 113.426C631.664 113.424 632.334 113.438 633.005 113.469C633.675 113.5 634.344 113.547 635.012 113.611C635.68 113.675 636.346 113.756 637.01 113.853C637.673 113.95 638.334 114.063 638.993 114.192C639.651 114.322 640.306 114.468 640.957 114.629C641.608 114.791 642.254 114.969 642.897 115.163C643.539 115.357 644.176 115.567 644.808 115.792C645.44 116.017 646.066 116.258 646.686 116.514C647.306 116.771 647.919 117.042 648.526 117.328C649.133 117.615 649.732 117.916 650.324 118.232C650.916 118.549 651.5 118.879 652.075 119.224C652.65 119.569 653.217 119.928 653.774 120.301C654.332 120.674 654.88 121.061 655.419 121.461C655.958 121.861 656.486 122.274 657.004 122.7C657.522 123.126 658.029 123.565 658.526 124.016C659.023 124.467 659.508 124.931 659.981 125.406C672.583 138.185 671.361 155.583 671.36 172.143L671.331 200.037C681.055 200.024 690.779 200.065 700.503 200.161L700.428 158.217C700.456 145.611 703.057 134.018 712.36 124.905C720.668 116.767 731.567 113.128 743.077 113.325C754.069 113.513 764.803 117.593 772.465 125.626C785.038 138.808 783.924 154.938 783.895 171.845C783.916 181.322 783.84 190.799 783.667 200.275C804.05 200.029 823.63 199.041 843.005 206.826C843.728 207.116 844.447 207.415 845.162 207.723C845.877 208.031 846.588 208.348 847.295 208.673C848.002 208.998 848.706 209.333 849.405 209.676C850.104 210.019 850.798 210.371 851.489 210.731C852.179 211.092 852.864 211.461 853.545 211.838C854.226 212.215 854.903 212.601 855.574 212.996C856.245 213.39 856.912 213.792 857.573 214.203C858.234 214.614 858.891 215.034 859.542 215.461C860.193 215.888 860.838 216.323 861.478 216.766C862.119 217.209 862.753 217.661 863.382 218.12C864.011 218.579 864.634 219.046 865.251 219.52C865.868 219.995 866.48 220.477 867.085 220.967C867.69 221.457 868.289 221.954 868.882 222.459C869.475 222.964 870.062 223.476 870.642 223.995C871.222 224.514 871.796 225.041 872.363 225.574C872.93 226.108 873.49 226.649 874.044 227.196C874.597 227.743 875.144 228.298 875.684 228.859C876.223 229.42 876.756 229.988 877.282 230.563C877.807 231.137 878.326 231.718 878.837 232.305C879.348 232.892 879.852 233.486 880.348 234.086C880.845 234.686 881.334 235.292 881.815 235.904C882.296 236.516 882.77 237.134 883.236 237.758C883.702 238.381 884.16 239.011 884.61 239.646C885.061 240.281 885.503 240.922 885.937 241.569C886.372 242.215 886.798 242.866 887.216 243.523C887.634 244.18 888.044 244.842 888.445 245.509C888.847 246.176 889.24 246.848 889.625 247.525C890.01 248.202 890.386 248.883 890.754 249.57C891.122 250.256 891.481 250.947 891.832 251.642C892.183 252.337 892.525 253.037 892.858 253.74C893.191 254.444 893.516 255.152 893.832 255.863C894.147 256.575 894.454 257.291 894.752 258.01C895.733 260.351 896.618 262.728 897.407 265.141C898.196 267.554 898.886 269.994 899.477 272.463C900.069 274.931 900.56 277.419 900.95 279.927C901.341 282.436 901.629 284.956 901.816 287.487C902.453 296.91 902.223 306.501 902.287 315.948L902.374 368.331L902.44 511.516L902.312 662.819L902.43 714.891C902.451 724.964 902.778 735.154 902.228 745.213C901.673 755.336 899.778 765.277 895.921 774.682C886.153 798.506 867.075 816.57 843.561 826.511C842.282 827.02 840.992 827.496 839.69 827.94C838.388 828.384 837.076 828.795 835.753 829.174C834.43 829.553 833.099 829.898 831.759 830.21C830.419 830.522 829.072 830.801 827.718 831.046C826.364 831.291 825.005 831.503 823.641 831.68C822.276 831.857 820.908 832 819.537 832.109C818.166 832.218 816.792 832.293 815.417 832.334C814.042 832.375 812.666 832.381 811.291 832.353C810.316 837.058 809.172 841.722 807.859 846.345C802.211 866.342 791.627 894.547 772.542 904.998C763.866 909.748 752.951 910.55 743.529 907.717C711.581 898.113 697.06 850.233 682.824 823.432C679.73 829.541 676.486 835.601 673.58 841.801C667.812 854.111 662.416 866.65 655.237 878.234C647.284 891.067 636.041 903.791 620.719 907.285C610.495 909.618 599.992 907.6 591.152 902.035C568.29 887.643 560.109 858.483 554.405 833.702C515.921 833.349 477.436 833.294 438.951 833.536L228.5 833.857C198.228 834.14 172.453 826.868 150.423 805.075C136.82 791.618 127.954 775.198 123.873 756.519C120.98 743.278 121.662 729.286 121.638 715.802L121.581 672.568L121.605 500.477L121.916 362.889L121.867 315.448C121.894 302.271 121.14 288.678 123.994 275.746C124.234 274.627 124.494 273.512 124.774 272.402C125.054 271.293 125.354 270.188 125.674 269.089C125.993 267.99 126.332 266.897 126.691 265.81C127.05 264.723 127.429 263.642 127.826 262.569C128.223 261.496 128.64 260.43 129.076 259.371C129.512 258.313 129.967 257.263 130.44 256.22C130.913 255.178 131.405 254.145 131.915 253.12C132.426 252.095 132.954 251.08 133.501 250.075C134.048 249.07 134.613 248.074 135.195 247.089C135.778 246.103 136.378 245.128 136.995 244.165C137.612 243.201 138.247 242.248 138.899 241.307C139.55 240.366 140.219 239.437 140.904 238.52C141.589 237.603 142.29 236.698 143.007 235.806C143.724 234.914 144.457 234.035 145.206 233.169C145.955 232.304 146.719 231.452 147.499 230.613C148.278 229.775 149.072 228.951 149.881 228.141C165.008 213.017 185.571 202.486 206.99 200.361C217.827 199.287 229.113 199.909 240.005 199.934C240.103 189.214 239.993 178.487 239.963 167.767C239.942 160.303 239.254 152.282 240.854 144.96C242.036 139.556 244.476 134.367 247.684 129.874C254.201 120.745 263.978 115.01 274.965 113.16Z" fill="#FEFEFD"/>
<path d="M628.305 126.61C634.399 126.113 640.267 127.303 645.468 130.599C651.36 134.333 655.602 140.216 656.979 147.046C658.545 154.814 657.998 163.124 658.004 171.01L658.012 202.518L658.016 234.138C658.011 240.161 658.365 246.434 657.611 252.415C657.055 256.824 655.96 260.175 653.453 263.861C648.403 271.287 641.424 274.736 632.824 276.361C626.4 276.915 619.862 274.961 614.579 271.31C608.78 267.303 605.162 261.801 603.842 254.892C602.383 247.254 602.984 238.99 602.983 231.232L602.989 196.412L603.006 168.825C603.011 162.98 602.665 156.861 603.421 151.064C604.036 146.348 605.291 142.484 608.001 138.535C612.992 131.261 619.965 128.117 628.305 126.61Z" fill="#A5DDE9"/>
<path d="M390.859 126.632C396.603 126.142 402.647 127.608 407.637 130.489C413.052 133.616 418.286 139.102 419.741 145.292C421.894 154.45 420.985 164.689 420.953 174.036L420.964 204.993L421.01 233.224C421.016 238.931 421.328 244.834 420.741 250.513C420.256 255.202 419.293 259.591 416.654 263.583C412.001 270.621 404.956 274.222 396.962 275.974C389.85 276.633 382.689 274.987 376.859 270.753C371.092 266.564 367.523 260.307 366.43 253.292C365.51 247.386 365.982 240.925 365.982 234.949L365.952 204.913L365.872 170.32C365.847 163.981 365.357 157.317 366.158 151.035C366.841 145.679 368.192 141.797 371.413 137.417C376.341 130.715 382.951 127.902 390.859 126.632Z" fill="#A5DDE9"/>
<path d="M737.084 126.602C744.388 126.079 751.068 126.551 757.471 130.594C762.884 134.013 767.6 139.912 769.018 146.23C770.823 154.276 770.159 163.004 770.151 171.213L770.22 199.587L770.305 231.836C770.306 238.169 770.601 244.733 769.874 251.024C769.339 255.647 768.208 259.759 765.607 263.669C760.821 270.865 754.43 274.227 746.19 275.904C738.997 276.352 732.693 275.47 726.559 271.501C721.222 268.046 716.132 262.037 714.761 255.691C712.976 247.436 713.657 238.49 713.697 230.089L713.823 197.949L713.818 169.097C713.82 162.986 713.535 156.73 714.24 150.657C714.784 145.967 715.7 142.483 718.332 138.45C722.862 131.509 729.186 128.244 737.084 126.602Z" fill="#A5DDE9"/>
<path d="M276.909 126.096C284.19 125.427 290.975 126.585 297.278 130.418C303.912 134.452 308.064 140.734 309.792 148.264C311.261 154.665 310.465 162.294 310.455 168.842L310.454 198.827L310.463 231.538C310.466 237.815 310.797 244.332 310.128 250.574C309.61 255.405 308.626 259.657 305.943 263.809C301.44 270.779 294.598 274.674 286.623 276.376C279.633 277.176 272.958 276.146 266.854 272.483C261.266 269.129 256.223 263.43 254.597 257.012C252.146 247.339 253.093 236.564 253.094 226.645L253.025 191.287C253 178.699 252.051 164.588 253.249 152.236C253.699 147.602 254.598 143.461 257.044 139.443C261.66 131.86 268.574 128.125 276.909 126.096Z" fill="#A5DDE9"/>
<path d="M350.059 213.248L351.505 213.204C352.867 213.972 352.608 215.692 352.615 217.158C352.676 230.182 350.705 249.043 354.247 261.151C355.987 267.098 360.193 273.311 364.541 277.683C365.011 278.156 365.492 278.616 365.984 279.065C366.477 279.514 366.98 279.95 367.495 280.374C368.009 280.798 368.533 281.209 369.068 281.606C369.603 282.004 370.147 282.388 370.7 282.759C371.254 283.13 371.817 283.486 372.388 283.829C372.959 284.172 373.539 284.501 374.127 284.815C374.714 285.129 375.309 285.428 375.912 285.712C376.515 285.997 377.124 286.266 377.74 286.52C378.356 286.775 378.978 287.014 379.606 287.237C380.233 287.46 380.866 287.668 381.505 287.86C382.143 288.052 382.785 288.228 383.432 288.388C384.079 288.548 384.729 288.692 385.383 288.82C386.037 288.947 386.694 289.059 387.354 289.154C388.013 289.249 388.675 289.328 389.338 289.39C390.001 289.453 390.666 289.499 391.332 289.528C391.997 289.557 392.663 289.57 393.33 289.566C404.062 289.587 414.882 285.445 422.504 277.817C434.353 265.959 434.472 252.236 434.48 236.526L434.46 213.308L590.046 213.398L589.948 237.718C589.904 252.817 589.941 266.175 601.225 277.637C608.756 285.286 619.055 289.344 629.747 289.374C630.438 289.382 631.128 289.373 631.819 289.347C632.509 289.321 633.198 289.278 633.886 289.217C634.574 289.156 635.26 289.079 635.945 288.985C636.629 288.89 637.311 288.779 637.99 288.651C638.669 288.522 639.344 288.377 640.015 288.215C640.686 288.053 641.353 287.875 642.016 287.68C642.679 287.485 643.336 287.273 643.989 287.046C644.641 286.818 645.287 286.574 645.927 286.315C646.567 286.055 647.2 285.779 647.827 285.488C648.454 285.197 649.072 284.891 649.683 284.569C650.294 284.247 650.897 283.91 651.492 283.558C652.087 283.206 652.672 282.84 653.248 282.459C653.824 282.078 654.39 281.683 654.947 281.274C655.504 280.865 656.05 280.442 656.586 280.006C657.121 279.57 657.646 279.121 658.159 278.658C658.672 278.196 659.174 277.721 659.664 277.234C671.289 265.594 671.51 252.238 671.446 236.8L671.321 213.492L700.432 213.463L700.391 236.824C700.383 252.169 700.854 265.89 712.373 277.451C720.173 285.279 730.883 289.405 741.889 289.382C753.119 289.359 763.601 285.302 771.537 277.288C783.281 265.43 783.867 252.74 783.761 236.994L783.612 213.537L806.762 213.529C829.376 213.595 849.249 221.399 865.207 237.614C886.553 259.302 888.56 279.352 888.473 308.171L888.341 343.263C881.218 343.779 873.826 343.454 866.675 343.451L826.75 343.406L135.664 343.444C135.831 331.63 135.871 319.815 135.782 308C135.774 279.689 138.025 259.454 159.161 238.316C185.416 212.059 205.762 213.322 240.006 213.452L239.939 236.906C239.913 252.339 240.083 265.444 251.369 277.32C259.135 285.491 270.323 289.761 281.503 289.9C282.196 289.911 282.888 289.904 283.581 289.88C284.274 289.857 284.965 289.816 285.656 289.757C286.347 289.699 287.035 289.624 287.722 289.531C288.409 289.438 289.093 289.328 289.774 289.201C290.455 289.074 291.133 288.931 291.807 288.77C292.481 288.609 293.151 288.432 293.816 288.238C294.481 288.044 295.141 287.833 295.796 287.606C296.451 287.379 297.099 287.136 297.742 286.877C298.385 286.618 299.02 286.342 299.649 286.051C300.278 285.76 300.899 285.453 301.513 285.131C302.126 284.809 302.731 284.472 303.328 284.12C303.925 283.767 304.512 283.4 305.091 283.019C305.669 282.637 306.237 282.241 306.796 281.831C307.355 281.421 307.903 280.997 308.441 280.56C308.978 280.123 309.505 279.672 310.02 279.209C310.535 278.745 311.038 278.269 311.529 277.78C323.388 265.888 323.591 252.334 323.578 236.582L323.529 213.321L350.059 213.248Z" fill="#A5DDE9"/>
<path d="M607.92 533.705C636.842 531.839 653.976 550.091 682.795 550.539C700.158 550.809 709.82 545.536 725.386 539.914C742.249 533.824 761.005 531.848 778.414 536.717C797.326 542.006 813.011 555.314 822.584 572.332C843.856 610.147 831.409 670.855 817.935 710.054C815.726 716.48 813.44 722.922 810.898 729.224C808.81 734.403 805.416 740.332 804.539 745.842C803.348 753.325 804.529 769.028 804.342 777.651C804.202 783.352 803.887 789.044 803.396 794.726C802.905 800.408 802.24 806.07 801.401 811.711C800.562 817.352 799.55 822.962 798.365 828.541C797.18 834.12 795.825 839.657 794.299 845.152C789.799 861.032 781.12 884.429 765.521 892.752C765.172 892.941 764.818 893.122 764.46 893.294C764.101 893.465 763.739 893.628 763.372 893.782C763.006 893.935 762.636 894.08 762.262 894.215C761.889 894.35 761.512 894.476 761.132 894.593C760.752 894.709 760.369 894.816 759.984 894.913C759.599 895.01 759.212 895.098 758.822 895.176C758.433 895.254 758.042 895.322 757.649 895.381C757.256 895.44 756.861 895.488 756.466 895.527C756.071 895.566 755.674 895.595 755.277 895.614C754.88 895.633 754.483 895.643 754.086 895.642C753.689 895.641 753.292 895.631 752.895 895.61C752.498 895.589 752.102 895.559 751.707 895.519C751.312 895.478 750.918 895.428 750.525 895.369C750.132 895.309 749.741 895.239 749.352 895.16C748.963 895.081 748.575 894.992 748.19 894.893C747.805 894.794 747.423 894.686 747.044 894.568C732.573 890.082 723.336 874.314 716.697 861.807C708.244 846.516 698.627 819.72 688.537 807.383C687.258 805.819 685.482 803.468 683.26 803.563C674.649 803.929 652.519 855.395 647.074 865.357C643.816 871.319 639.912 877.126 635.528 882.318C629.932 888.945 623.071 894.225 614.07 894.853C606.528 895.379 599.798 892.221 594.198 887.418C568.405 865.296 562.627 813.237 561.041 780.947C560.496 769.84 561.835 757.497 559.353 746.688C556.837 735.737 550.025 720.244 546.068 709.201C543.977 703.341 542.083 697.418 540.386 691.432C538.689 685.445 537.194 679.409 535.9 673.323C534.607 667.237 533.517 661.115 532.632 654.956C531.746 648.797 531.067 642.616 530.594 636.412C528.73 610.334 530.529 581.121 548.58 560.582C563.457 543.654 585.847 535.214 607.92 533.705Z" fill="#4D4E4B"/>
<path d="M605.298 553.693C624.153 551.072 639.553 560.352 656.672 565.809C658.79 566.476 660.929 567.064 663.09 567.573C665.251 568.082 667.428 568.51 669.621 568.859C671.814 569.207 674.016 569.474 676.229 569.659C678.442 569.844 680.658 569.948 682.878 569.969C685.293 570.01 687.705 569.953 690.115 569.798C692.525 569.644 694.925 569.393 697.315 569.046C699.705 568.698 702.077 568.255 704.431 567.716C706.785 567.177 709.114 566.544 711.417 565.817C732.559 558.981 744.219 549.403 768.406 555.094C769.324 555.307 770.236 555.544 771.143 555.803C772.05 556.062 772.949 556.344 773.842 556.648C774.734 556.952 775.618 557.278 776.495 557.626C777.371 557.975 778.238 558.345 779.095 558.736C779.953 559.127 780.8 559.54 781.637 559.974C782.474 560.408 783.3 560.863 784.115 561.338C784.929 561.813 785.731 562.308 786.52 562.823C787.31 563.338 788.086 563.873 788.849 564.427C789.612 564.981 790.361 565.554 791.095 566.145C791.829 566.736 792.548 567.346 793.252 567.973C793.956 568.6 794.644 569.245 795.315 569.907C795.987 570.568 796.642 571.246 797.28 571.941C797.917 572.635 798.537 573.345 799.14 574.07C799.742 574.795 800.326 575.535 800.891 576.29C801.456 577.045 802.003 577.813 802.53 578.595C803.057 579.376 803.564 580.171 804.051 580.978C825.028 614.981 808.644 676.253 796.735 711.535C794.579 717.84 792.306 724.102 789.917 730.321C788.074 735.082 785.58 740.107 784.732 745.159C783.787 750.79 785.047 767.177 785.05 773.784C785.049 778.495 784.91 783.202 784.633 787.905C784.355 792.608 783.939 797.298 783.386 801.977C782.832 806.655 782.141 811.313 781.314 815.951C780.486 820.588 779.522 825.198 778.423 829.779C775.649 841.37 768.118 868.009 757.441 874.132C755.66 875.154 753.918 875.609 751.907 874.96C742.07 871.787 729.724 844.462 725.178 835.129C718.802 821.297 709.398 796.922 697.148 787.978C692.373 784.492 686.875 782.784 680.972 783.791C654.021 788.388 639.367 844.342 625.164 864.789C622.319 868.885 618.304 873.44 613.102 874.184C610.319 874.582 607.756 873.646 605.555 871.971C586.343 857.352 581.649 801.298 580.641 777.831C580.136 766.057 581.398 754.075 578.791 742.49C575.703 728.762 569.584 715.748 564.767 702.569C563.122 697.946 561.605 693.282 560.217 688.576C558.829 683.87 557.572 679.129 556.445 674.354C555.318 669.579 554.324 664.776 553.462 659.946C552.6 655.116 551.872 650.266 551.277 645.395C548.707 623.24 548.631 593.617 563.208 575.429C573.524 562.557 589.165 555.483 605.298 553.693Z" fill="#FEFEFD"/>
<path d="M610.927 566.698C624.469 567.122 634.989 571.989 647.384 576.667C648.525 577.098 649.673 577.51 650.828 577.901C651.983 578.292 653.145 578.663 654.314 579.014C655.482 579.365 656.656 579.696 657.835 580.006C659.015 580.316 660.2 580.606 661.39 580.875C662.579 581.144 663.773 581.393 664.972 581.62C666.17 581.848 667.372 582.055 668.578 582.241C669.783 582.426 670.992 582.591 672.203 582.735C673.414 582.879 674.628 583.002 675.843 583.104C677.058 583.206 678.275 583.287 679.494 583.346C680.712 583.405 681.931 583.444 683.151 583.461C684.37 583.478 685.59 583.474 686.809 583.449C688.029 583.424 689.248 583.377 690.466 583.31C691.683 583.243 692.9 583.154 694.115 583.044C695.33 582.935 696.542 582.804 697.752 582.652C698.963 582.5 700.17 582.327 701.374 582.134C702.579 581.94 703.779 581.725 704.976 581.49C718.994 578.594 728.196 572.017 740.709 568.566C752.65 565.274 766.454 566.709 777.24 572.866C788.588 579.345 795.486 590.513 798.736 602.946C806.653 633.24 792.686 684.529 782.123 713.418C779.748 719.913 771.443 737.081 770.586 742.19C769.571 748.248 771.575 757.311 771.544 763.901C771.394 795.432 769.679 830.549 753.3 858.489C743.446 843.501 736.76 827.416 729.091 811.292C722.703 798.383 716.125 783.85 703.703 775.662C695.864 770.495 686.033 768.259 676.803 770.294C642.805 777.791 629.283 833.879 612.447 860.026C597.586 837.861 594.777 802.768 594.123 776.519C593.821 764.398 594.429 751.84 591.864 739.939C588.931 726.339 582.953 713.642 578.097 700.67C570.386 680.074 565.005 657.092 563.64 635.119C562.507 616.9 562.909 595.806 575.783 581.469C584.954 571.256 597.58 567.458 610.927 566.698Z" fill="#A5DDE9"/>
<path d="M135.605 357.19L888.055 357.299C887.314 401.533 887.938 445.913 888.082 490.159L887.997 634.883L888.037 708.837C888.029 722.783 889.064 737.564 887.023 751.347C884.744 766.732 878.661 780.954 868.418 792.71C854.286 808.93 835.22 817.38 813.961 818.866C816.859 802.811 817.861 786.968 818.144 770.661C818.271 763.349 816.917 754.652 818.436 747.526C820.042 739.992 824.386 732.246 826.907 724.867C834.172 703.601 840.663 682.418 844.106 660.162C849.802 623.349 850.684 586.757 827.321 555.212C803.885 523.568 765.825 514.121 729.032 524.972C713.2 529.642 701.787 537.055 684.532 537.155C661.327 537.29 646.296 524.586 624.266 521.406C599.573 517.842 572.853 524.291 552.851 539.262C548.714 543.176 544.334 546.877 540.018 550.592C527.193 565.016 520.194 582.416 517.785 601.516C517.493 605.774 517.464 610.259 516.661 614.446C516.26 627.552 516.668 640.968 518.806 653.924C519.927 657.927 520.337 662.088 520.866 666.202C524.686 685.643 529.582 704.761 536.847 723.241C538.852 727.301 540.224 731.759 541.726 736.028C542.946 741.257 545.761 745.952 546.657 751.356C547.949 759.146 547.14 768.087 547.432 776.019C547.975 790.742 549.24 805.855 551.58 820.4L223.825 819.643C199.283 819.616 177.553 813.062 159.958 795.273C159.206 794.521 158.469 793.755 157.747 792.974C157.024 792.194 156.317 791.4 155.625 790.593C154.933 789.786 154.257 788.965 153.597 788.132C152.936 787.299 152.292 786.453 151.663 785.595C151.035 784.737 150.424 783.867 149.829 782.986C149.234 782.104 148.657 781.211 148.096 780.308C147.535 779.405 146.992 778.491 146.466 777.566C145.94 776.642 145.432 775.708 144.943 774.764C144.453 773.821 143.981 772.868 143.528 771.906C143.074 770.944 142.639 769.974 142.223 768.995C141.807 768.016 141.41 767.03 141.031 766.037C140.652 765.043 140.293 764.042 139.953 763.035C139.613 762.028 139.292 761.014 138.991 759.994C138.689 758.974 138.407 757.949 138.145 756.919C137.883 755.888 137.641 754.853 137.418 753.813C137.196 752.773 136.994 751.729 136.811 750.682C134.143 735.982 135.451 719.763 135.473 704.809L135.572 630.452L135.605 357.19Z" fill="#A5DDE9"/>
<path d="M518.806 653.924C519.927 657.927 520.337 662.088 520.866 666.202C508.963 666.441 497.06 666.52 485.155 666.438L484.983 723.125L536.847 723.241C538.852 727.301 540.224 731.759 541.726 736.028L502.605 736.045C495.658 736.045 488.489 736.414 481.573 735.85C479.69 735.697 477.027 735.465 475.471 734.271C473.142 732.485 472.656 729.334 472.516 726.623C471.796 712.627 472.395 698.285 472.397 684.239C472.399 677.005 471.497 667.069 472.702 660.079C472.964 658.561 473.886 657.013 474.981 655.938C476.33 654.614 478.337 654.285 480.149 654.071C484.666 653.538 489.477 653.849 494.035 653.855L518.806 653.924Z" fill="#262624"/>
<path d="M472.497 609.475C472.445 608.631 472.406 607.786 472.38 606.941C472.03 592.011 472.393 576.989 472.416 562.05C472.426 555.409 471.489 544.622 472.814 538.541C473.19 536.817 474.168 535.653 475.363 534.414C480.728 532.006 535.801 533.062 547.437 533.02C549.864 534.763 551.322 536.743 552.851 539.262C548.714 543.176 544.334 546.877 540.018 550.592C540.058 549.266 540.478 546.451 539.816 545.41C521.548 544.979 503.153 545.485 484.87 545.499L484.608 601.537C495.502 601.541 506.962 602.281 517.785 601.516C517.493 605.774 517.464 610.259 516.661 614.446L493.873 614.57C489.674 614.594 485.113 614.966 480.956 614.389C476.8 613.811 475.05 612.788 472.497 609.475Z" fill="#1C1B19"/>
<path d="M484.87 545.499C503.153 545.485 521.548 544.979 539.816 545.41C540.478 546.451 540.058 549.266 540.018 550.592C527.193 565.016 520.194 582.416 517.785 601.516C506.962 602.281 495.502 601.541 484.608 601.537L484.87 545.499Z" fill="#FEFFF9"/>
<path d="M485.155 666.438C497.06 666.52 508.963 666.441 520.866 666.202C524.686 685.643 529.582 704.761 536.847 723.241L484.983 723.125L485.155 666.438Z" fill="#FFFFFD"/>
<path d="M357.7 533.23C372.08 532.815 386.54 533.122 400.929 533.092C407.217 533.079 417.614 532.157 423.473 533.456C426.263 534.074 427.548 536.763 428.868 539.03C429.193 548.653 429.789 605.603 427.794 609.877C426.663 612.298 424.958 613.55 422.522 614.49C412.985 614.441 359.991 615.812 355.094 613.496C353.261 612.629 351.55 610.082 350.975 608.191C349.969 604.88 350.116 548.824 350.459 542.696C350.555 540.993 350.72 538.88 351.565 537.354C352.88 534.982 355.179 533.875 357.7 533.23Z" fill="#1A1918"/>
<path d="M362.462 545.356C380.332 545.848 398.349 545.414 416.233 545.349L416.309 601.505C398.422 601.987 380.404 601.465 362.5 601.577L362.462 545.356Z" fill="#FDFEF9"/>
<path d="M356.767 654.167C364.935 653.804 420.873 652.887 424.93 654.722C426.432 655.401 427.614 656.635 428.148 658.196C428.771 660.016 428.948 662.091 429.018 664.007C429.463 676.159 428.914 688.463 428.903 700.63C428.895 709.067 429.544 717.75 429.05 726.157C428.93 728.203 428.753 730.489 427.827 732.355C426.888 734.248 425.499 734.872 423.583 735.503C413.553 735.505 363.639 736.616 357.686 734.716C355.069 733.88 353.044 731.767 351.802 729.372C350.955 727.737 350.573 726.07 350.418 724.243C349.451 712.853 350.385 700.696 350.473 689.227C350.537 681.027 349.901 672.629 350.318 664.476C350.404 662.79 350.601 661.128 351.152 659.523C352.175 656.546 354.022 655.441 356.767 654.167Z" fill="#201F1D"/>
<path d="M362.617 666.491L416.51 666.437L416.533 703.996C416.537 710.075 417.145 716.763 416.271 722.743C398.372 722.701 380.474 722.766 362.577 722.938L362.617 666.491Z" fill="#FFFFFC"/>
<path d="M236.584 654.22L275.309 654.061C281.897 654.044 288.929 653.53 295.468 654.232C297.618 654.463 299.915 654.703 301.566 656.241C303.873 658.387 304.375 660.468 304.504 663.521C305.034 676.007 304.62 688.696 304.639 701.202C304.652 709.507 305.529 718.99 304.219 727.164C304.141 727.651 304.025 728.128 303.872 728.596C303.718 729.065 303.529 729.518 303.304 729.956C303.079 730.395 302.82 730.813 302.529 731.21C302.238 731.608 301.918 731.98 301.568 732.327C299.373 734.52 297.113 734.893 294.125 734.977L253.531 735.076C247.097 735.092 239.913 735.726 233.562 734.799C230.914 734.413 228.482 733.839 226.448 732.031C225.032 728.791 224.511 725.214 224.405 721.695C224.047 709.758 224.32 697.728 224.317 685.783C224.316 677.777 223.52 668.777 224.926 660.896C225.221 659.245 225.737 658.051 226.944 656.85C229.504 654.306 233.226 654.293 236.584 654.22Z" fill="#171716"/>
<path d="M236.674 666.474L292.084 666.439C291.814 685.117 292.025 703.825 292.016 722.507L236.598 722.496L236.674 666.474Z" fill="#FFFFFC"/>
<path d="M232.431 533.191C245.821 532.596 259.369 533.01 272.777 533.018C280.146 533.023 288.237 532.278 295.511 533.139C297.378 533.36 299.253 533.911 300.802 535.006C302.724 536.364 303.356 537.426 303.811 539.724C305.622 548.867 304.561 566.976 304.564 576.881C304.567 586.506 305.48 597.244 304.214 606.754C304.037 608.079 303.648 609.267 302.869 610.361C301.174 612.743 299.117 613.8 296.3 614.33C288.868 614.527 234.394 615.627 230.09 613.695C227.513 612.538 226.143 610.767 225.254 608.136C224.468 605.81 224.191 603.322 224.073 600.88C223.623 591.557 224.123 582.014 224.061 572.659C223.998 563.225 223.243 553.178 224.057 543.818C224.233 541.794 224.532 539.574 225.502 537.755C226.946 535.046 229.623 533.946 232.431 533.191Z" fill="#1C1B1A"/>
<path d="M236.769 545.523L291.917 545.511C291.617 564.162 291.94 582.861 291.982 601.517L236.564 601.541L236.769 545.523Z" fill="#FFFFFA"/>
<path d="M358.359 415.664C369.88 415.267 381.491 415.526 393.021 415.51C401.424 415.499 410.124 415.029 418.498 415.672C421.911 415.933 424.524 416.559 426.761 419.33C428.113 421.005 428.59 423.118 428.85 425.209C429.857 433.307 428.954 442.246 428.955 450.466C428.957 463.401 430.057 480.864 428.373 493.39C426.308 496.303 424.989 497.704 421.622 498.989C400.004 499.291 378.233 499.369 356.617 498.905C353.8 497.276 352.278 495.559 350.544 492.803C350.314 482.973 349.102 424.551 351.71 420.014C353.078 417.633 355.85 416.4 358.359 415.664Z" fill="#171716"/>
<path d="M362.421 427.864C380.304 428.564 398.447 427.944 416.357 427.871L416.391 486.473C398.409 486.77 380.37 486.443 362.382 486.417L362.421 427.864Z" fill="#FEFFF7"/>
<path d="M602.258 415.709C614.228 415.109 626.428 415.558 638.424 415.585C647.386 415.606 656.849 415.003 665.723 416.065C668.012 416.339 670.493 416.665 672.304 418.188C673.595 420.568 674.139 422.936 674.446 425.62C675.292 433.021 674.696 441.184 674.692 448.654C674.725 463.401 674.656 478.148 674.486 492.895C672.696 495.9 671.58 497.657 668.172 498.984C659.451 499.076 605.14 499.926 600.797 498.168C599.004 497.443 597.367 496.213 596.678 494.354C596.062 492.694 595.939 490.726 595.882 488.963C595.478 476.391 596.035 463.721 596.023 451.137C596.015 442.741 595.285 434.035 595.805 425.678C595.932 423.628 596.235 421.369 597.147 419.504C598.259 417.228 599.975 416.506 602.258 415.709Z" fill="#1B1A19"/>
<path d="M608.326 427.738C626.324 428.256 644.554 427.818 662.562 427.576L662.521 486.363C644.422 485.859 626.178 486.326 608.063 486.336C608.237 473.048 608.075 459.74 608.077 446.45C608.077 440.356 607.576 433.773 608.326 427.738Z" fill="#FEFEFB"/>
<path d="M262.822 415.75C271.413 415.773 288.433 414.453 296.021 416.318C299.909 417.274 301.786 418.964 303.905 422.296C303.994 423.073 304.067 423.852 304.124 424.632C304.935 435.386 304.288 446.673 304.313 457.505C304.337 467.909 305.35 479.469 303.883 489.761C303.567 491.98 302.884 494.377 301.3 496.042C301.053 496.302 300.79 496.544 300.51 496.768C300.231 496.991 299.937 497.195 299.629 497.378C299.32 497.561 299.001 497.722 298.671 497.861C298.34 498 298.002 498.115 297.656 498.207C291.498 499.85 273.351 498.722 266.111 498.723C257.722 498.799 239.876 500.202 232.546 498.438C228.427 497.447 226.675 495.726 224.54 492.159C224.477 491.273 224.419 490.399 224.396 489.51C224.036 475.665 224.267 461.732 224.188 447.876C224.146 440.444 223.116 430.671 224.484 423.576C224.868 421.581 225.879 419.883 227.333 418.475C228.422 417.421 229.699 416.578 231.18 416.207C237.475 414.633 255.29 415.728 262.822 415.75Z" fill="#171716"/>
<path d="M236.618 427.964C255.059 428.049 273.5 428.017 291.941 427.868C291.472 447.353 291.921 466.935 291.968 486.43L236.499 486.446L236.618 427.964Z" fill="#FEFFF4"/>
<path d="M485.644 415.746C497.671 415.537 509.714 415.591 521.743 415.534C528.343 415.503 535.407 414.952 541.945 415.672C544.081 415.908 546.692 416.267 548.454 417.609C550.487 419.158 551.763 421.445 551.929 423.987C552.736 436.313 552.049 449.145 552.061 461.511C552.07 471.335 553.079 483.02 551.638 492.66C551.398 494.264 551.013 495.449 549.848 496.616C546.842 499.624 541.906 499.039 538.032 498.988C529.769 498.995 479.793 500.219 475.996 497.6C474.158 496.332 472.835 494.342 472.579 492.129C471.515 482.928 472.383 472.18 472.381 462.84C472.379 450.609 471.562 437.728 472.583 425.556C472.764 423.401 472.928 420.294 474.395 418.615C477.09 415.529 481.935 415.859 485.644 415.746Z" fill="#171716"/>
<path d="M537.613 427.742L539.004 427.72C540.306 429.479 539.502 479.692 539.498 486.441C521.81 486.11 504.069 486.382 486.375 486.417L485.062 486.284C483.667 484.351 484.646 434.801 484.665 427.95C502.305 427.953 519.979 428.176 537.613 427.742Z" fill="#FFFFFB"/>
<path d="M768.795 415.753C774.555 415.698 793.926 414.062 797.81 418.079C799.193 419.508 799.858 421.414 800.137 423.346C801.177 430.541 800.416 438.721 800.427 446.032C800.501 461.82 800.48 477.608 800.363 493.395C798.83 495.963 797.15 497.318 794.597 498.869C780.042 499.5 765.281 498.994 750.703 498.979C744.585 498.971 726.712 500.566 722.326 496.883C720.403 495.269 719.934 490.25 719.747 487.813C718.817 475.726 719.558 463.013 719.552 450.862C719.547 442.166 718.671 432.425 719.738 423.82C719.971 421.943 720.685 419.706 722.06 418.333C723.566 416.83 726.085 416.303 728.124 416.013C732.686 415.365 737.651 415.738 742.26 415.739L768.795 415.753Z" fill="#1D1C1B"/>
<path d="M732.024 427.629C750.709 427.738 769.395 427.751 788.081 427.667L787.999 486.407C769.304 486.262 750.608 486.273 731.913 486.439L732.024 427.629Z" fill="#FEFFF8"/>
</svg>
